<svg width="946" height="1250" viewBox="0 0 946 1250" fill="none" xmlns="http://www.w3.org/2000/svg">
<g opacity="0.03">
<path fill-rule="evenodd" clip-rule="evenodd" d="M1172.41 326.467L662.877 124.546L511.783 246.88L687.709 316.598L520.023 449.721L696.293 519.432L863.86 386.404L1019.42 448.05L1172.41 326.467Z" fill="white"/>
<path fill-rule="evenodd" clip-rule="evenodd" d="M687.595 253.403L338.55 115.081L286.187 157.48L634.57 295.54L687.595 253.403Z" fill="white"/>
<path fill-rule="evenodd" clip-rule="evenodd" d="M255.042 239.653L333.64 785.164L513.899 855.019L486.759 666.672L684.54 745.537L657.226 556.894L459.588 478.085L435.595 311.54L255.042 239.653Z" fill="white"/>
<path fill-rule="evenodd" clip-rule="evenodd" d="M432.382 698.647L486.226 1072.34L548.698 1096.55L494.959 723.562L432.382 698.647Z" fill="white"/>
<path fill-rule="evenodd" clip-rule="evenodd" d="M640.561 1085.4L1071.49 741.812L1042.33 549.62L893.544 668.252L863.452 456.266L714.497 575.195L744.563 787.032L612.998 891.928L640.561 1085.4Z" fill="white"/>
<path fill-rule="evenodd" clip-rule="evenodd" d="M948.036 699.471L1243.24 464.108L1233.13 397.497L938.484 632.42L948.036 699.471Z" fill="white"/>
</g>
</svg>
