<svg width="152" height="101" viewBox="0 0 152 101" fill="none" xmlns="http://www.w3.org/2000/svg">
<g filter="url(#filter0_d_99_323)">
<mask id="path-1-outside-1_99_323" maskUnits="userSpaceOnUse" x="1" y="1" width="150" height="99" fill="black">
<rect fill="white" x="1" y="1" width="150" height="99"/>
<path d="M4.25 5.99999V27.06H43.9L8.41 97H33.37L70.55 21.73V5.99999H4.25ZM113.295 75.94L113.555 75.81L122.005 68.4C136.305 55.92 145.795 47.99 145.795 33.82C145.795 18.09 133.965 4.30999 113.425 4.30999C93.4046 4.30999 78.8446 17.18 78.0646 37.72H100.295C101.205 29.53 104.845 25.37 112.385 25.37C120.705 25.37 123.435 30.44 123.435 34.86C123.435 40.32 120.705 43.05 103.675 58L77.0246 81.27V97H147.485V75.94H113.295Z"/>
</mask>
<path d="M4.25 5.99999V2.99999H1.25V5.99999H4.25ZM4.25 27.06H1.25V30.06H4.25V27.06ZM43.9 27.06L46.5753 28.4175L48.7864 24.06H43.9V27.06ZM8.41 97L5.73472 95.6425L3.52356 100H8.41V97ZM33.37 97V100H35.2342L36.0598 98.3286L33.37 97ZM70.55 21.73L73.2398 23.0586L73.55 22.4305V21.73H70.55ZM70.55 5.99999H73.55V2.99999H70.55V5.99999ZM1.25 5.99999V27.06H7.25V5.99999H1.25ZM4.25 30.06H43.9V24.06H4.25V30.06ZM41.2247 25.7025L5.73472 95.6425L11.0853 98.3575L46.5753 28.4175L41.2247 25.7025ZM8.41 100H33.37V94H8.41V100ZM36.0598 98.3286L73.2398 23.0586L67.8603 20.4014L30.6802 95.6714L36.0598 98.3286ZM73.55 21.73V5.99999H67.55V21.73H73.55ZM70.55 2.99999H4.25V8.99999H70.55V2.99999ZM113.295 75.94L111.953 73.2567L113.295 78.94V75.94ZM113.555 75.81L114.896 78.4933L115.242 78.3204L115.533 78.0656L113.555 75.81ZM122.005 68.4L120.032 66.1397L120.027 66.1444L122.005 68.4ZM78.0646 37.72L75.0668 37.6062L74.9485 40.72H78.0646V37.72ZM100.295 37.72V40.72H102.98L103.276 38.0513L100.295 37.72ZM103.675 58L105.648 60.2598L105.654 60.2545L103.675 58ZM77.0246 81.27L75.0514 79.0102L74.0246 79.9068V81.27H77.0246ZM77.0246 97H74.0246V100H77.0246V97ZM147.485 97V100H150.485V97H147.485ZM147.485 75.94H150.485V72.94H147.485V75.94ZM114.636 78.6233L114.896 78.4933L112.213 73.1267L111.953 73.2567L114.636 78.6233ZM115.533 78.0656L123.983 70.6556L120.027 66.1444L111.577 73.5544L115.533 78.0656ZM123.977 70.6603C137.946 58.4691 148.795 49.619 148.795 33.82H142.795C142.795 46.361 134.663 53.3709 120.032 66.1397L123.977 70.6603ZM148.795 33.82C148.795 25.1943 145.544 17.0298 139.411 11.023C133.264 5.00275 124.39 1.30999 113.425 1.30999V7.30999C123 7.30999 130.31 10.5072 135.213 15.3095C140.13 20.1252 142.795 26.7157 142.795 33.82H148.795ZM113.425 1.30999C102.766 1.30999 93.3592 4.74419 86.49 11.1125C79.6077 17.493 75.4838 26.6253 75.0668 37.6062L81.0624 37.8338C81.4255 28.2746 84.9715 20.702 90.5692 15.5125C96.18 10.3108 104.063 7.30999 113.425 7.30999V1.30999ZM78.0646 40.72H100.295V34.72H78.0646V40.72ZM103.276 38.0513C103.696 34.274 104.699 31.935 106.025 30.5431C107.273 29.2332 109.185 28.37 112.385 28.37V22.37C108.044 22.37 104.366 23.5868 101.681 26.4044C99.075 29.14 97.8033 32.976 97.313 37.3887L103.276 38.0513ZM112.385 28.37C115.911 28.37 117.814 29.424 118.851 30.5197C119.932 31.662 120.435 33.2333 120.435 34.86H126.435C126.435 32.0667 125.572 28.893 123.208 26.3953C120.8 23.851 117.178 22.37 112.385 22.37V28.37ZM120.435 34.86C120.435 35.9439 120.304 36.7257 119.971 37.5264C119.619 38.3741 118.968 39.4179 117.677 40.903C115.031 43.9464 110.28 48.2092 101.695 55.7455L105.654 60.2545C114.099 52.8408 119.228 48.2636 122.205 44.8395C123.725 43.0908 124.821 41.494 125.513 39.8271C126.224 38.113 126.435 36.5061 126.435 34.86H120.435ZM101.701 55.7402L75.0514 79.0102L78.9978 83.5298L105.648 60.2598L101.701 55.7402ZM74.0246 81.27V97H80.0246V81.27H74.0246ZM77.0246 100H147.485V94H77.0246V100ZM150.485 97V75.94H144.485V97H150.485ZM147.485 72.94H113.295V78.94H147.485V72.94Z" fill="#22ECF3" mask="url(#path-1-outside-1_99_323)"/>
</g>
<defs>
<filter id="filter0_d_99_323" x="0.25" y="0.30957" width="151.234" height="100.69" filterUnits="userSpaceOnUse" color-interpolation-filters="sRGB">
<feFlood flood-opacity="0" result="BackgroundImageFix"/>
<feColorMatrix in="SourceAlpha" type="matrix" values="0 0 0 0 0 0 0 0 0 0 0 0 0 0 0 0 0 0 127 0" result="hardAlpha"/>
<feOffset/>
<feGaussianBlur stdDeviation="2"/>
<feComposite in2="hardAlpha" operator="out"/>
<feColorMatrix type="matrix" values="0 0 0 0 0.133333 0 0 0 0 0.92549 0 0 0 0 0.952941 0 0 0 1 0"/>
<feBlend mode="normal" in2="BackgroundImageFix" result="effect1_dropShadow_99_323"/>
<feBlend mode="normal" in="SourceGraphic" in2="effect1_dropShadow_99_323" result="shape"/>
</filter>
</defs>
</svg>
