<svg width="227" height="103" viewBox="0 0 227 103" fill="none" xmlns="http://www.w3.org/2000/svg">
<g filter="url(#filter0_d_99_328)">
<mask id="path-1-outside-1_99_328" maskUnits="userSpaceOnUse" x="1" y="1" width="225" height="101" fill="black">
<rect fill="white" x="1" y="1" width="225" height="101"/>
<path d="M36.49 5.99999L4.25 18.48V40.19L24.4 31.74V97H46.5V5.99999H36.49ZM95.8898 4.30999C76.1298 4.30999 60.1398 17.96 60.1398 38.76C60.1398 58.78 74.8298 68.27 89.5198 68.27C93.1598 68.27 95.6298 67.75 98.3598 66.58L74.0498 97H100.18C117.08 74.64 131.9 58 131.9 38.37C131.9 17.7 115.39 4.30999 95.8898 4.30999ZM96.0198 51.63C88.0898 51.63 82.4998 46.95 82.4998 38.76C82.4998 30.57 88.0898 25.37 96.0198 25.37C103.95 25.37 109.54 30.57 109.54 38.76C109.54 46.95 103.95 51.63 96.0198 51.63ZM181.959 4.30999C156.739 4.30999 141.659 23.16 141.659 51.5C141.659 79.84 156.739 98.69 181.959 98.69C207.179 98.69 222.259 79.84 222.259 51.5C222.259 23.16 207.179 4.30999 181.959 4.30999ZM181.959 77.63C169.089 77.63 164.019 68.27 164.019 51.5C164.019 34.73 169.089 25.37 181.959 25.37C194.829 25.37 199.899 34.73 199.899 51.5C199.899 68.27 194.829 77.63 181.959 77.63Z"/>
</mask>
<path d="M36.49 5.99999V2.99999H35.9296L35.407 3.20229L36.49 5.99999ZM4.25 18.48L3.16702 15.6823L1.25 16.4244V18.48H4.25ZM4.25 40.19H1.25V44.7012L5.41018 42.9566L4.25 40.19ZM24.4 31.74H27.4V27.2288L23.2398 28.9734L24.4 31.74ZM24.4 97H21.4V100H24.4V97ZM46.5 97V100H49.5V97H46.5ZM46.5 5.99999H49.5V2.99999H46.5V5.99999ZM35.407 3.20229L3.16702 15.6823L5.33298 21.2777L37.573 8.7977L35.407 3.20229ZM1.25 18.48V40.19H7.25V18.48H1.25ZM5.41018 42.9566L25.5602 34.5066L23.2398 28.9734L3.08982 37.4234L5.41018 42.9566ZM21.4 31.74V97H27.4V31.74H21.4ZM24.4 100H46.5V94H24.4V100ZM49.5 97V5.99999H43.5V97H49.5ZM46.5 2.99999H36.49V8.99999H46.5V2.99999ZM98.3598 66.58L100.703 68.4529L97.1781 63.8226L98.3598 66.58ZM74.0498 97L71.7063 95.1271L67.8121 100H74.0498V97ZM100.18 97V100H101.673L102.573 98.8089L100.18 97ZM95.8898 1.30999C74.6828 1.30999 57.1398 16.1008 57.1398 38.76H63.1398C63.1398 19.8192 77.5768 7.30999 95.8898 7.30999V1.30999ZM57.1398 38.76C57.1398 49.5669 61.1355 57.7846 67.3329 63.2691C73.4712 68.7012 81.5583 71.27 89.5198 71.27V65.27C82.7914 65.27 76.1884 63.0938 71.3092 58.7759C66.4892 54.5104 63.1398 47.9731 63.1398 38.76H57.1398ZM89.5198 71.27C93.5265 71.27 96.4034 70.6824 99.5416 69.3374L97.1781 63.8226C94.8563 64.8176 92.7931 65.27 89.5198 65.27V71.27ZM96.0163 64.7071L71.7063 95.1271L76.3934 98.8729L100.703 68.4529L96.0163 64.7071ZM74.0498 100H100.18V94H74.0498V100ZM102.573 98.8089C110.923 87.7609 119.013 77.8065 124.929 68.2389C130.886 58.6053 134.9 48.9764 134.9 38.37H128.9C128.9 47.3936 125.504 55.8997 119.826 65.0835C114.106 74.3335 106.336 83.8791 97.7865 95.1911L102.573 98.8089ZM134.9 38.37C134.9 15.7639 116.753 1.30999 95.8898 1.30999V7.30999C114.027 7.30999 128.9 19.6361 128.9 38.37H134.9ZM96.0198 48.63C92.6326 48.63 90.0346 47.6356 88.3153 46.0567C86.6297 44.5086 85.4998 42.137 85.4998 38.76H79.4998C79.4998 43.573 81.165 47.6364 84.2569 50.4758C87.315 53.2844 91.4771 54.63 96.0198 54.63V48.63ZM85.4998 38.76C85.4998 35.3717 86.6399 32.8349 88.378 31.1441C90.127 29.4427 92.7175 28.37 96.0198 28.37V22.37C91.3922 22.37 87.2227 23.8973 84.1942 26.8434C81.1548 29.8001 79.4998 33.9583 79.4998 38.76H85.4998ZM96.0198 28.37C99.3222 28.37 101.913 29.4427 103.662 31.1441C105.4 32.8349 106.54 35.3717 106.54 38.76H112.54C112.54 33.9583 110.885 29.8001 107.845 26.8434C104.817 23.8973 100.647 22.37 96.0198 22.37V28.37ZM106.54 38.76C106.54 42.137 105.41 44.5086 103.724 46.0567C102.005 47.6356 99.4071 48.63 96.0198 48.63V54.63C100.563 54.63 104.725 53.2844 107.783 50.4758C110.875 47.6364 112.54 43.573 112.54 38.76H106.54ZM181.959 1.30999C168.54 1.30999 157.594 6.35752 150.053 15.3498C142.563 24.281 138.659 36.8256 138.659 51.5H144.659C144.659 37.8344 148.295 26.784 154.65 19.2052C160.954 11.6875 170.158 7.30999 181.959 7.30999V1.30999ZM138.659 51.5C138.659 66.1744 142.563 78.719 150.053 87.6502C157.594 96.6425 168.54 101.69 181.959 101.69V95.69C170.158 95.69 160.954 91.3125 154.65 83.7948C148.295 76.216 144.659 65.1656 144.659 51.5H138.659ZM181.959 101.69C195.378 101.69 206.324 96.6425 213.865 87.6502C221.355 78.719 225.259 66.1744 225.259 51.5H219.259C219.259 65.1656 215.623 76.216 209.268 83.7948C202.964 91.3125 193.76 95.69 181.959 95.69V101.69ZM225.259 51.5C225.259 36.8256 221.355 24.281 213.865 15.3498C206.324 6.35752 195.378 1.30999 181.959 1.30999V7.30999C193.76 7.30999 202.964 11.6875 209.268 19.2052C215.623 26.784 219.259 37.8344 219.259 51.5H225.259ZM181.959 74.63C176.375 74.63 172.919 72.6748 170.68 69.2217C168.278 65.5172 167.019 59.6924 167.019 51.5H161.019C161.019 60.0776 162.295 67.3178 165.646 72.4858C169.159 77.9052 174.673 80.63 181.959 80.63V74.63ZM167.019 51.5C167.019 43.3076 168.278 37.4828 170.68 33.7783C172.919 30.3252 176.375 28.37 181.959 28.37V22.37C174.673 22.37 169.159 25.0948 165.646 30.5142C162.295 35.6822 161.019 42.9224 161.019 51.5H167.019ZM181.959 28.37C187.543 28.37 190.999 30.3252 193.238 33.7783C195.64 37.4828 196.899 43.3076 196.899 51.5H202.899C202.899 42.9224 201.623 35.6822 198.272 30.5142C194.759 25.0948 189.245 22.37 181.959 22.37V28.37ZM196.899 51.5C196.899 59.6924 195.64 65.5172 193.238 69.2217C190.999 72.6748 187.543 74.63 181.959 74.63V80.63C189.245 80.63 194.759 77.9052 198.272 72.4858C201.623 67.3178 202.899 60.0776 202.899 51.5H196.899Z" fill="#22ECF3" mask="url(#path-1-outside-1_99_328)"/>
</g>
<defs>
<filter id="filter0_d_99_328" x="0.25" y="0.30957" width="226.009" height="102.381" filterUnits="userSpaceOnUse" color-interpolation-filters="sRGB">
<feFlood flood-opacity="0" result="BackgroundImageFix"/>
<feColorMatrix in="SourceAlpha" type="matrix" values="0 0 0 0 0 0 0 0 0 0 0 0 0 0 0 0 0 0 127 0" result="hardAlpha"/>
<feOffset/>
<feGaussianBlur stdDeviation="2"/>
<feComposite in2="hardAlpha" operator="out"/>
<feColorMatrix type="matrix" values="0 0 0 0 0.133333 0 0 0 0 0.92549 0 0 0 0 0.952941 0 0 0 1 0"/>
<feBlend mode="normal" in2="BackgroundImageFix" result="effect1_dropShadow_99_328"/>
<feBlend mode="normal" in="SourceGraphic" in2="effect1_dropShadow_99_328" result="shape"/>
</filter>
</defs>
</svg>
