<svg width="80" height="103" viewBox="0 0 80 103" fill="none" xmlns="http://www.w3.org/2000/svg">
<g filter="url(#filter0_d_99_318)">
<mask id="path-1-outside-1_99_318" maskUnits="userSpaceOnUse" x="1" y="1" width="78" height="101" fill="black">
<rect fill="white" x="1" y="1" width="78" height="101"/>
<path d="M62.4 49.55C68.9 46.04 73.19 39.02 73.19 30.7C73.19 15.36 58.89 4.30999 40.04 4.30999C21.19 4.30999 6.89 15.36 6.89 30.7C6.89 39.02 11.18 46.04 17.68 49.55C9.23 53.45 4.55 61.51 4.55 71C4.55 88.16 19.63 98.69 40.04 98.69C60.45 98.69 75.53 88.16 75.53 71C75.53 61.51 70.85 53.45 62.4 49.55ZM40.04 25.11C48.36 25.11 51.09 29.01 51.09 33.56C51.09 37.98 48.36 40.97 40.04 40.97C31.72 40.97 28.99 37.98 28.99 33.56C28.99 29.01 31.72 25.11 40.04 25.11ZM40.04 77.89C31.07 77.89 26.78 74.77 26.78 68.92C26.78 62.81 31.59 60.08 40.04 60.08C48.49 60.08 53.3 62.81 53.3 68.92C53.3 74.77 49.01 77.89 40.04 77.89Z"/>
</mask>
<path d="M62.4 49.55L60.9746 46.9103L55.6967 49.7603L61.1428 52.2739L62.4 49.55ZM17.68 49.55L18.9372 52.2739L24.3833 49.7603L19.1054 46.9103L17.68 49.55ZM63.8255 52.1897C71.3363 48.1338 76.19 40.0751 76.19 30.7H70.19C70.19 37.9649 66.4637 43.9462 60.9746 46.9103L63.8255 52.1897ZM76.19 30.7C76.19 13.0796 59.8455 1.30999 40.04 1.30999V7.30999C57.9345 7.30999 70.19 17.6404 70.19 30.7H76.19ZM40.04 1.30999C20.2345 1.30999 3.89 13.0796 3.89 30.7H9.89C9.89 17.6404 22.1455 7.30999 40.04 7.30999V1.30999ZM3.89 30.7C3.89 40.0751 8.74366 48.1338 16.2546 52.1897L19.1054 46.9103C13.6163 43.9462 9.89 37.9649 9.89 30.7H3.89ZM16.4228 46.8261C6.79979 51.2675 1.55 60.4667 1.55 71H7.55C7.55 62.5533 11.6602 55.6325 18.9372 52.2739L16.4228 46.8261ZM1.55 71C1.55 80.5623 5.79499 88.3546 12.8324 93.6733C19.7968 98.9369 29.354 101.69 40.04 101.69V95.69C30.316 95.69 22.1282 93.1781 16.4501 88.8867C10.845 84.6504 7.55 78.5977 7.55 71H1.55ZM40.04 101.69C50.726 101.69 60.2832 98.9369 67.2476 93.6733C74.285 88.3546 78.53 80.5623 78.53 71H72.53C72.53 78.5977 69.235 84.6504 63.6299 88.8867C57.9518 93.1781 49.764 95.69 40.04 95.69V101.69ZM78.53 71C78.53 60.4667 73.2802 51.2675 63.6572 46.8261L61.1428 52.2739C68.4198 55.6325 72.53 62.5533 72.53 71H78.53ZM40.04 28.11C43.7787 28.11 45.7084 28.9896 46.6828 29.8628C47.6062 30.6904 48.09 31.8892 48.09 33.56H54.09C54.09 30.6808 53.2088 27.6546 50.6872 25.3947C48.2166 23.1804 44.6213 22.11 40.04 22.11V28.11ZM48.09 33.56C48.09 35.102 47.655 35.9413 46.8778 36.5279C45.9204 37.2505 43.9408 37.97 40.04 37.97V43.97C44.4593 43.97 48.0047 43.1945 50.4922 41.3171C53.16 39.3037 54.09 36.438 54.09 33.56H48.09ZM40.04 37.97C36.1393 37.97 34.1596 37.2505 33.2022 36.5279C32.425 35.9413 31.99 35.102 31.99 33.56H25.99C25.99 36.438 26.92 39.3037 29.5878 41.3171C32.0754 43.1945 35.6208 43.97 40.04 43.97V37.97ZM31.99 33.56C31.99 31.8892 32.4738 30.6904 33.3972 29.8628C34.3716 28.9896 36.3013 28.11 40.04 28.11V22.11C35.4587 22.11 31.8634 23.1804 29.3928 25.3947C26.8712 27.6546 25.99 30.6808 25.99 33.56H31.99ZM40.04 74.89C35.8121 74.89 33.2145 74.1384 31.7482 73.1282C30.4795 72.2542 29.78 71.0029 29.78 68.92H23.78C23.78 72.6871 25.2255 75.9207 28.3443 78.0693C31.2655 80.0816 35.2979 80.89 40.04 80.89V74.89ZM29.78 68.92C29.78 66.7999 30.533 65.5842 31.8589 64.7352C33.4092 63.7426 36.0435 63.08 40.04 63.08V57.08C35.5865 57.08 31.5908 57.7824 28.6236 59.6823C25.432 61.7258 23.78 64.9301 23.78 68.92H29.78ZM40.04 63.08C44.0365 63.08 46.6708 63.7426 48.2211 64.7352C49.547 65.5842 50.3 66.7999 50.3 68.92H56.3C56.3 64.9301 54.648 61.7258 51.4564 59.6823C48.4892 57.7824 44.4935 57.08 40.04 57.08V63.08ZM50.3 68.92C50.3 71.0029 49.6005 72.2542 48.3318 73.1282C46.8655 74.1384 44.2679 74.89 40.04 74.89V80.89C44.7821 80.89 48.8145 80.0816 51.7357 78.0693C54.8545 75.9207 56.3 72.6871 56.3 68.92H50.3Z" fill="#22ECF3" mask="url(#path-1-outside-1_99_318)"/>
</g>
<defs>
<filter id="filter0_d_99_318" x="0.549805" y="0.30957" width="78.9805" height="102.381" filterUnits="userSpaceOnUse" color-interpolation-filters="sRGB">
<feFlood flood-opacity="0" result="BackgroundImageFix"/>
<feColorMatrix in="SourceAlpha" type="matrix" values="0 0 0 0 0 0 0 0 0 0 0 0 0 0 0 0 0 0 127 0" result="hardAlpha"/>
<feOffset/>
<feGaussianBlur stdDeviation="2"/>
<feComposite in2="hardAlpha" operator="out"/>
<feColorMatrix type="matrix" values="0 0 0 0 0.133333 0 0 0 0 0.92549 0 0 0 0 0.952941 0 0 0 1 0"/>
<feBlend mode="normal" in2="BackgroundImageFix" result="effect1_dropShadow_99_318"/>
<feBlend mode="normal" in="SourceGraphic" in2="effect1_dropShadow_99_318" result="shape"/>
</filter>
</defs>
</svg>
