<?xml version="1.0" encoding="utf-8"?><svg viewBox="0 0 61 28" xmlns="http://www.w3.org/2000/svg" xmlns:xlink="http://www.w3.org/1999/xlink"><style>:root>svg{display:none}:root>svg:target{display:block}</style><svg viewBox="0 0 10 10" id="arrow-select" xmlns="http://www.w3.org/2000/svg"><g clip-path="url(#aa)"><path d="M4.505 7.645l-4.3-4.3a.7.7 0 11.99-.99L5 6.16l3.805-3.805a.7.7 0 01.99.99l-4.3 4.3a.698.698 0 01-.99 0z"/></g><defs><clipPath id="aa"><path transform="rotate(90 5 5)" d="M0 0h10v10H0z"/></clipPath></defs></svg><svg viewBox="0 0 61 2" id="burger-line" xmlns="http://www.w3.org/2000/svg"><path d="M0 0h61l-5.5 2H0V0z"/></svg><svg viewBox="0 0 26 26" id="f-face" xmlns="http://www.w3.org/2000/svg"><path d="M16.38 5.764h2.037V2.319a28.289 28.289 0 00-2.968-.152c-2.947 0-4.962 1.798-4.962 5.092v2.838H7.161v3.857h3.326v9.88h3.987v-9.88h3.315l.498-3.857h-3.813v-2.46c0-1.137.303-1.873 1.906-1.873z"/></svg><svg viewBox="0 0 22 22" id="i-inst" xmlns="http://www.w3.org/2000/svg"><g clip-path="url(#da)"><path d="M15.125 0h-8.25A6.875 6.875 0 000 6.875v8.25A6.875 6.875 0 006.875 22h8.25A6.875 6.875 0 0022 15.125v-8.25A6.875 6.875 0 0015.125 0zm4.813 15.125a4.818 4.818 0 01-4.813 4.813h-8.25a4.818 4.818 0 01-4.813-4.813v-8.25a4.818 4.818 0 014.813-4.813h8.25a4.818 4.818 0 014.813 4.813v8.25z"/><path d="M11 5.5a5.5 5.5 0 100 11 5.5 5.5 0 000-11zm0 8.938A3.442 3.442 0 017.562 11 3.441 3.441 0 0111 7.562 3.441 3.441 0 0114.438 11 3.442 3.442 0 0111 14.438zm5.913-8.618a.733.733 0 100-1.465.733.733 0 000 1.465z"/></g><defs><clipPath id="da"><path d="M0 0h22v22H0z"/></clipPath></defs></svg><svg viewBox="0 0 20 28" id="play" xmlns="http://www.w3.org/2000/svg"><path fill-rule="evenodd" clip-rule="evenodd" d="M3.582.6C2.272-.448.333.484.333 2.16v23.68c0 1.677 1.94 2.61 3.25 1.562L18.38 15.56a2 2 0 000-3.123L3.582.6z"/></svg><svg viewBox="0 0 26 26" id="t-tik" xmlns="http://www.w3.org/2000/svg"><g clip-path="url(#fa)"><path fill-rule="evenodd" clip-rule="evenodd" d="M13.406 2.438a.406.406 0 00-.406.406v14.625a2.032 2.032 0 11-2.031-2.032.406.406 0 00.406-.406v-3.25a.406.406 0 00-.406-.406 6.096 6.096 0 00-6.094 6.094 6.096 6.096 0 006.094 6.093 6.096 6.096 0 006.094-6.093V9.95a6.876 6.876 0 002.843.611h.813a.406.406 0 00.406-.406v-3.25a.406.406 0 00-.406-.406h-.813a2.845 2.845 0 01-2.843-2.844v-.812a.406.406 0 00-.407-.406h-3.25z"/></g><defs><clipPath id="fa"><path d="M0 0h26v26H0z"/></clipPath></defs></svg><svg viewBox="0 0 26 26" id="y-you" xmlns="http://www.w3.org/2000/svg"><path d="M25.241 7.909c0-.217-.325-1.95-1.083-2.709-.975-1.083-2.059-1.191-2.6-1.191h-.109c-3.358-.217-8.341-.217-8.45-.217 0 0-5.091 0-8.45.217h-.108c-.542 0-1.625.108-2.6 1.191C1.083 6.067.758 7.8.758 8.017c0 .108-.217 2.058-.217 4.117v1.841c0 2.059.217 4.009.217 4.117 0 .217.325 1.95 1.083 2.708.867.975 1.95 1.084 2.6 1.192h.325c1.95.217 7.908.217 8.125.217 0 0 5.092 0 8.45-.217h.108c.542-.108 1.625-.217 2.6-1.192.759-.866 1.084-2.6 1.084-2.816 0-.109.216-2.059.216-4.117v-1.842c.109-1.95-.108-4.008-.108-4.116zm-8.017 5.308l-6.5 3.467c-.108 0-.108.108-.216.108-.109 0-.217 0-.217-.108-.108-.109-.217-.217-.217-.434V9.21c0-.217.109-.325.217-.434.108-.108.325-.108.542 0l6.5 3.467c.216.108.325.217.325.433 0 .217-.217.434-.434.542z"/></svg></svg>