<svg width="155" height="166" viewBox="0 0 155 166" fill="none" xmlns="http://www.w3.org/2000/svg">
<path d="M48.5664 152.61V154.479H37.8457V152.61H48.5664ZM44.2051 148.045V159.432H42.2178V148.045H44.2051Z" fill="#323232"/>
<path d="M11.5664 152.61V154.479H0.845703V152.61H11.5664ZM7.20508 148.045V159.432H5.21777V148.045H7.20508Z" fill="#323232"/>
<path d="M48.5664 117.61V119.479H37.8457V117.61H48.5664ZM44.2051 113.045V124.432H42.2178V113.045H44.2051Z" fill="#323232"/>
<path d="M83.5664 12.6104V14.4795H72.8457V12.6104H83.5664ZM79.2051 8.04492V19.4316H77.2178V8.04492H79.2051Z" fill="#323232"/>
<path d="M83.5664 47.6104V49.4795H72.8457V47.6104H83.5664ZM79.2051 43.0449V54.4316H77.2178V43.0449H79.2051Z" fill="#323232"/>
<path d="M83.5664 82.6104V84.4795H72.8457V82.6104H83.5664ZM79.2051 78.0449V89.4316H77.2178V78.0449H79.2051Z" fill="#33B7BC"/>
<path d="M83.5664 117.61V119.479H72.8457V117.61H83.5664ZM79.2051 113.045V124.432H77.2178V113.045H79.2051Z" fill="#323232"/>
<path d="M83.5664 152.61V154.479H72.8457V152.61H83.5664ZM79.2051 148.045V159.432H77.2178V148.045H79.2051Z" fill="#323232"/>
<path d="M118.566 12.6104V14.4795H107.846V12.6104H118.566ZM114.205 8.04492V19.4316H112.218V8.04492H114.205Z" fill="#323232"/>
<path d="M118.566 47.6104V49.4795H107.846V47.6104H118.566ZM114.205 43.0449V54.4316H112.218V43.0449H114.205Z" fill="#323232"/>
<path d="M118.566 82.6104V84.4795H107.846V82.6104H118.566ZM114.205 78.0449V89.4316H112.218V78.0449H114.205Z" fill="#323232"/>
<path d="M118.566 117.61V119.479H107.846V117.61H118.566ZM114.205 113.045V124.432H112.218V113.045H114.205Z" fill="#323232"/>
<path d="M118.566 152.61V154.479H107.846V152.61H118.566ZM114.205 148.045V159.432H112.218V148.045H114.205Z" fill="#323232"/>
<path d="M153.566 12.6104V14.4795H142.846V12.6104H153.566ZM149.205 8.04492V19.4316H147.218V8.04492H149.205Z" fill="#33B7BC"/>
<path d="M153.566 47.6104V49.4795H142.846V47.6104H153.566ZM149.205 43.0449V54.4316H147.218V43.0449H149.205Z" fill="#323232"/>
<path d="M153.566 82.6104V84.4795H142.846V82.6104H153.566ZM149.205 78.0449V89.4316H147.218V78.0449H149.205Z" fill="#323232"/>
<path d="M153.566 117.61V119.479H142.846V117.61H153.566ZM149.205 113.045V124.432H147.218V113.045H149.205Z" fill="#323232"/>
<path d="M153.566 152.61V154.479H142.846V152.61H153.566ZM149.205 148.045V159.432H147.218V148.045H149.205Z" fill="#323232"/>
</svg>
