<svg width="374" height="276" viewBox="0 0 374 276" fill="none" xmlns="http://www.w3.org/2000/svg">
<path d="M130.503 368.92C61.1697 368.92 4.96311 312.635 4.96311 243.202C4.96312 173.769 61.1697 117.484 130.503 117.484C199.835 117.484 256.042 173.769 256.042 243.202C256.042 312.635 199.835 368.92 130.503 368.92Z" stroke="#D4CAFF"/>
<path d="M143.77 373.903C66.1941 373.903 3.30504 310.925 3.30505 233.238C3.30505 155.55 66.1941 92.5732 143.77 92.5732C221.346 92.5732 284.235 155.55 284.235 233.238C284.235 310.926 221.346 373.903 143.77 373.903Z" stroke="#D4CAFF"/>
<path d="M154.55 378.885C69.6463 378.885 0.817311 309.959 0.817315 224.934C0.817319 139.909 69.6463 70.9834 154.55 70.9834C239.453 70.9834 308.282 139.909 308.282 224.934C308.282 309.959 239.453 378.885 154.55 378.885Z" stroke="#D4CAFF"/>
<path d="M170.305 382.206C78.9903 382.206 4.96376 308.076 4.96377 216.63C4.96377 125.184 78.9903 51.0537 170.305 51.0537C261.62 51.0537 335.646 125.184 335.646 216.63C335.646 308.076 261.62 382.206 170.305 382.206Z" stroke="#D4CAFF"/>
<path d="M185.645 385.527C88.1477 385.527 9.10936 306.378 9.10937 208.741C9.10937 111.104 88.1477 31.9551 185.645 31.9551C283.142 31.9551 362.181 111.104 362.181 208.741C362.181 306.378 283.142 385.527 185.645 385.527Z" stroke="#D4CAFF"/>
<path d="M203.059 389.68C95.9444 389.68 9.10985 302.723 9.10985 195.456C9.10986 88.1879 95.9444 1.23143 203.059 1.23144C310.173 1.23144 397.008 88.1879 397.008 195.456C397.008 302.723 310.173 389.68 203.059 389.68Z" stroke="#D4CAFF"/>
</svg>
