<svg width="30" height="30" viewBox="0 0 30 30" fill="none" xmlns="http://www.w3.org/2000/svg">
<path fill-rule="evenodd" clip-rule="evenodd" d="M9.76156 18.1047L3.93709 15.5906C3.32539 15.326 2.93655 14.7154 2.95628 14.0492C2.97718 13.3829 3.40084 12.7968 4.02763 12.5704C8.27932 11.0313 21.1389 6.37453 24.8648 5.02462C25.4289 4.8215 26.0591 4.94454 26.5048 5.34498C26.9506 5.74659 27.1386 6.36061 26.9958 6.94328C26.1671 10.2954 23.6043 20.6699 22.8219 23.8363C22.6861 24.3877 22.2718 24.8276 21.7309 24.997C21.1888 25.1677 20.598 25.0423 20.172 24.6674L16.2198 21.1957L13.1265 24.1613C12.6819 24.5873 12.0365 24.7254 11.4562 24.52C10.877 24.3134 10.4638 23.798 10.3884 23.1875L9.76156 18.1047ZM20.9764 22.5944L24.758 7.28569L5.84068 14.1362L10.8341 16.2928C11.3634 16.5215 11.7325 17.0136 11.8033 17.5859L12.3488 22.0128L14.6342 19.8226L14.4323 19.6485C14.0829 19.3502 13.8775 18.9184 13.8647 18.4599C13.8508 18.0014 14.033 17.5592 14.3638 17.2411C15.6046 16.0514 18.9149 12.8792 18.9149 12.8792C19.3316 12.4799 19.9933 12.4938 20.3925 12.9105C20.7907 13.3261 20.7767 13.9877 20.3612 14.3869L16.1803 18.3949L16.8686 18.9845L20.9764 22.5944Z" fill="white"/>
</svg>
